# xmcd
#
# Track frame offsets:
#	150
#	20786
#	40327
#	58232
#	73403
#	89864
#	107744
#	121918
#	138576
#	153693
#	169639
#	188395
#	205573
#	227249
#	246746
#	264345
#	281205
#	297194
#
# Disc length: 4207 seconds
#
# Revision: 0
# Processed by: cddbd v1.5.2PL0 Copyright (c) Steve Scherf et al.
# Submitted via: EasyCDDAExtractor 12.0.7.1
#
DISCID=1e106d12
DTITLE=Стас Михайлов - Аллея шансона
DYEAR=2011
DGENRE=Chanson
TTITLE0=Свеча
TTITLE1=Приди ко мне
TTITLE2=Темные глаза
TTITLE3=Позывные на любовь
TTITLE4=За женщин всех
TTITLE5=Париж, Париж
TTITLE6=Сказочный мир
TTITLE7=Танго
TTITLE8=Осеннее расставание
TTITLE9=Я к вечности шагаю
TTITLE10=Серый дождь
TTITLE11=Мне б успеть сказать
TTITLE12=Мой друг
TTITLE13=Без тебя
TTITLE14=Забудь
TTITLE15=Отпускаю
TTITLE16=Ветер
TTITLE17=Ну, вот и все
EXTD=
EXTT0=
EXTT1=
EXTT2=
EXTT3=
EXTT4=
EXTT5=
EXTT6=
EXTT7=
EXTT8=
EXTT9=
EXTT10=
EXTT11=
EXTT12=
EXTT13=
EXTT14=
EXTT15=
EXTT16=
EXTT17=
PLAYORDER=
